<?xml version="1.0" standalone="no"?>
<!DOCTYPE svg PUBLIC "-//W3C//DTD SVG 20010904//EN"
 "http://www.w3.org/TR/2001/REC-SVG-20010904/DTD/svg10.dtd">
<svg version="1.0" xmlns="http://www.w3.org/2000/svg"
 width="196.000000pt" height="196.000000pt" viewBox="0 0 196.000000 196.000000"
 preserveAspectRatio="xMidYMid meet">
<metadata>
Created by potrace 1.11, written by Peter Selinger 2001-2013
</metadata>
<g transform="translate(0.000000,196.000000) scale(0.100000,-0.100000)"
fill="#000000" stroke="none">
<path d="M5 1950 c-3 -5 -1 -10 4 -10 6 0 11 5 11 10 0 6 -2 10 -4 10 -3 0 -8
-4 -11 -10z"/>
<path d="M48 1948 c9 -9 15 -9 24 0 9 9 7 12 -12 12 -19 0 -21 -3 -12 -12z"/>
<path d="M460 1945 c-8 -9 -8 -15 -2 -15 12 0 26 19 19 26 -2 2 -10 -2 -17
-11z"/>
<path d="M635 1950 c3 -5 10 -10 16 -10 5 0 9 5 9 10 0 6 -7 10 -16 10 -8 0
-12 -4 -9 -10z"/>
<path d="M115 1930 c-3 -5 1 -10 9 -10 9 0 16 5 16 10 0 6 -4 10 -9 10 -6 0
-13 -4 -16 -10z"/>
<path d="M60 1899 c0 -5 5 -7 10 -4 6 3 10 8 10 11 0 2 -4 4 -10 4 -5 0 -10
-5 -10 -11z"/>
<path d="M117 1903 c-4 -3 -7 -11 -7 -17 0 -6 5 -5 12 2 6 6 9 14 7 17 -3 3
-9 2 -12 -2z"/>
<path d="M905 1831 c-16 -4 -50 -17 -75 -28 -25 -12 -59 -24 -77 -27 -22 -5
-35 -16 -43 -37 -7 -16 -17 -29 -22 -29 -5 0 -6 -4 -3 -10 3 -5 0 -10 -9 -10
-8 0 -16 6 -19 13 -3 6 -10 0 -16 -16 -11 -29 -1 -67 19 -67 15 0 12 -46 -4
-59 -29 -24 -39 -123 -23 -235 8 -59 7 -70 -7 -78 -20 -11 -21 -66 -1 -133 22
-72 34 -93 72 -115 18 -10 33 -27 33 -37 0 -10 11 -35 25 -56 23 -33 26 -46
23 -110 -3 -78 -11 -88 -81 -101 -16 -3 -47 -20 -70 -39 -52 -42 -95 -64 -239
-123 -62 -26 -142 -62 -177 -82 -63 -35 -65 -37 -109 -131 -75 -161 -102 -234
-102 -278 l0 -43 926 0 926 0 -6 38 c-3 20 -8 69 -12 107 -7 87 -51 290 -70
328 -24 46 -146 100 -344 153 -58 15 -112 34 -121 41 -30 25 -39 15 -39 -47 0
-70 -27 -138 -71 -174 -42 -35 -126 -51 -185 -34 -44 13 -46 14 -49 55 -2 28
2 47 14 60 9 10 20 26 24 35 7 20 24 23 47 8 18 -11 33 9 19 26 -5 6 -12 31
-15 55 -5 38 -2 48 18 70 20 22 22 29 13 43 -7 9 -20 16 -29 16 -14 0 -16 6
-10 38 4 20 10 43 14 50 9 17 1 62 -11 62 -5 0 -9 10 -9 23 0 12 4 17 8 12 4
-6 23 -2 50 11 l43 20 -60 -4 c-53 -4 -61 -2 -61 13 0 12 6 16 20 12 13 -3 20
0 20 9 0 8 6 23 12 34 9 15 10 25 2 37 -15 24 -32 27 -36 6 -3 -10 -3 9 0 42
2 33 4 86 3 118 -1 43 2 57 13 57 8 0 18 -10 22 -22 9 -29 45 -78 57 -78 5 0
-3 14 -17 31 -30 35 -41 71 -31 96 7 15 9 13 14 -12 4 -17 17 -35 32 -44 23
-13 28 -12 52 5 15 10 27 25 27 32 0 8 9 10 28 6 26 -6 26 -6 7 9 -17 14 -18
16 -4 22 16 6 61 1 78 -9 5 -3 14 -29 21 -56 l12 -51 18 33 c12 23 15 37 8 45
-6 7 -11 40 -11 72 0 33 -4 58 -9 55 -4 -3 -8 0 -8 5 0 6 4 11 8 11 17 0 4 66
-25 130 -45 98 -124 168 -229 203 -95 31 -148 39 -189 28z m-237 -186 c-3 -3
-9 2 -12 12 -6 14 -5 15 5 6 7 -7 10 -15 7 -18z m454 6 c20 -5 58 -26 83 -47
45 -37 92 -114 81 -132 -3 -5 -1 -24 4 -42 5 -19 8 -35 7 -36 -2 -2 -36 5 -77
15 -104 26 -149 31 -156 20 -3 -5 -10 -7 -15 -4 -15 10 -10 -12 6 -28 13 -13
13 -16 0 -27 -12 -10 -19 -8 -35 13 -11 14 -35 28 -55 31 -31 6 -35 11 -35 36
0 25 4 30 25 30 13 0 32 -8 42 -19 20 -20 63 -34 63 -20 0 5 -6 9 -12 9 -7 0
2 10 19 23 35 24 44 44 16 32 -36 -15 -72 -15 -67 -1 3 8 -3 16 -15 19 -17 4
-18 9 -10 43 4 22 9 42 9 47 0 4 6 7 14 7 7 0 16 9 19 20 6 22 29 25 89 11z
m228 -271 c0 -5 -4 -10 -10 -10 -5 0 -10 5 -10 10 0 6 5 10 10 10 6 0 10 -4
10 -10z"/>
<path d="M1155 1220 c-16 -7 -13 -9 18 -9 20 -1 37 4 37 9 0 12 -27 12 -55 0z"/>
<path d="M1154 1184 c-6 -3 12 -29 40 -59 28 -29 52 -52 54 -50 4 3 -37 75
-56 98 -16 18 -19 19 -38 11z"/>
<path d="M1075 1150 c3 -5 13 -10 21 -10 8 0 12 5 9 10 -3 6 -13 10 -21 10 -8
0 -12 -4 -9 -10z"/>
<path d="M1188 1032 c-16 -2 -28 -9 -28 -16 0 -15 46 -10 56 6 8 13 4 14 -28
10z"/>
</g>
</svg>
